<?xml version="1.0" encoding="utf-8"?>
<!-- Generator: Adobe Illustrator 16.0.4, SVG Export Plug-In . SVG Version: 6.00 Build 0)  -->
<!DOCTYPE svg PUBLIC "-//W3C//DTD SVG 1.1//EN" "http://www.w3.org/Graphics/SVG/1.1/DTD/svg11.dtd">
<svg version="1.1" id="Layer_1" xmlns="http://www.w3.org/2000/svg" xmlns:xlink="http://www.w3.org/1999/xlink" x="0px" y="0px"
	 width="750px" height="463px" viewBox="0 0 750 463" enable-background="new 0 0 750 463" xml:space="preserve">
<g>
	<g>
		<g>
			<g>
				<path fill="#DFE3E1" d="M385.39,122.505c-59.811,0-108.332,48.521-108.332,108.329c0,59.809,48.521,108.329,108.332,108.329
					c59.808,0,108.329-48.52,108.329-108.329C493.719,171.026,445.197,122.505,385.39,122.505z"/>
				<g>
					<path fill="#A1A4A6" d="M373.11,193.208c0.394,0.792,0.791,1.583,1.188,2.178c0.394,0.595,0.988,1.189,1.387,1.782
						c0.593,0.593,1.19,1.188,1.982,1.782c0.595,0.396,1.386,0.991,2.375,1.189c0.791,0.396,1.583,0.593,2.575,0.792
						c0.991,0.197,1.782,0.197,2.576,0.197c0.791,0,1.778,0,2.571-0.197c0.792-0.199,1.587-0.396,2.179-0.792h0.198
						c0.796-0.398,1.587-0.793,2.377-1.388c0.595-0.396,1.188-0.991,1.78-1.583l0.199-0.199c0.593-0.595,0.988-1.188,1.388-1.782
						c0.396-0.593,0.792-1.188,0.987-1.979c0-0.199,0-0.199,0.2-0.396c0.397-0.793,0.597-1.784,0.794-2.574
						c0.198-0.793,0.198-1.786,0.198-2.578c0-0.79,0-1.782-0.198-2.575c-0.197-0.792-0.396-1.582-0.794-2.571
						c-0.593-1.388-1.388-2.577-2.378-3.568c-0.197-0.197-0.197-0.197-0.396-0.396c-0.593-0.595-1.186-0.989-1.978-1.583
						c-0.791-0.397-1.384-0.792-2.18-1.188c-0.79-0.396-1.585-0.596-2.377-0.793c-0.99-0.199-1.78-0.199-2.571-0.199
						c-0.794,0-1.786,0-2.576,0.199c-0.795,0.197-1.587,0.397-2.378,0.793h-0.197c-0.794,0.396-1.584,0.79-2.178,1.188
						c-0.792,0.595-1.385,0.989-1.981,1.583c-0.597,0.593-1.191,1.189-1.585,1.784c-0.396,0.595-0.794,1.386-1.188,2.18
						c-0.397,0.79-0.595,1.582-0.792,2.374c-0.2,0.99-0.2,1.784-0.2,2.576c0,0.792,0,1.78,0.2,2.574
						C372.516,191.622,372.911,192.414,373.11,193.208z"/>
				</g>
				<g>
					<path fill="#A1A4A6" d="M400.638,265.688h-4.553v-48.518c0-2.773-2.182-5.151-5.147-5.151h-20.797
						c-2.774,0-5.149,2.18-5.149,5.151v10.694c0,2.773,2.176,5.148,5.149,5.148h4.157v32.874h-4.157
						c-2.774,0-5.149,2.18-5.149,5.149v10.695c0,2.772,2.176,5.149,5.149,5.149h30.497c2.772,0,5.151-2.18,5.151-5.149v-10.695
						C405.789,268.067,403.41,265.688,400.638,265.688z"/>
				</g>
			</g>
		</g>
	</g>
</g>
</svg>
