<?xml version="1.0" encoding="utf-8"?>
<!-- Generator: Adobe Illustrator 16.0.4, SVG Export Plug-In . SVG Version: 6.00 Build 0)  -->
<!DOCTYPE svg PUBLIC "-//W3C//DTD SVG 1.1//EN" "http://www.w3.org/Graphics/SVG/1.1/DTD/svg11.dtd">
<svg version="1.1" id="Layer_1" xmlns="http://www.w3.org/2000/svg" xmlns:xlink="http://www.w3.org/1999/xlink" x="0px" y="0px"
	 width="750px" height="463px" viewBox="0 0 750 463" enable-background="new 0 0 750 463" xml:space="preserve">
<g>
	<g>
		<g>
			<g>
				<path fill="none" stroke="#5BCFF0" stroke-width="3.5466" stroke-miterlimit="10" d="M363.637,187.68
					c0.392,0.786,0.786,1.572,1.18,2.163c0.392,0.59,0.981,1.181,1.377,1.77c0.589,0.589,1.183,1.18,1.969,1.77
					c0.591,0.393,1.377,0.984,2.358,1.181c0.786,0.393,1.572,0.589,2.558,0.786c0.984,0.196,1.771,0.196,2.559,0.196
					c0.785,0,1.766,0,2.554-0.196c0.786-0.197,1.576-0.393,2.163-0.786h0.197c0.79-0.395,1.576-0.788,2.36-1.378
					c0.591-0.393,1.18-0.984,1.769-1.573l0.197-0.197c0.589-0.59,0.981-1.179,1.378-1.77c0.394-0.589,0.786-1.18,0.98-1.966
					c0-0.197,0-0.197,0.199-0.393c0.395-0.788,0.592-1.771,0.788-2.556c0.197-0.788,0.197-1.773,0.197-2.56
					c0-0.784,0-1.77-0.197-2.558c-0.196-0.786-0.394-1.571-0.788-2.553c-0.589-1.378-1.379-2.559-2.362-3.543
					c-0.195-0.196-0.195-0.196-0.393-0.393c-0.589-0.59-1.178-0.982-1.964-1.572c-0.786-0.395-1.375-0.786-2.165-1.179
					c-0.784-0.394-1.574-0.592-2.36-0.788c-0.983-0.197-1.769-0.197-2.554-0.197c-0.788,0-1.773,0-2.559,0.197
					c-0.789,0.196-1.575,0.395-2.361,0.788h-0.196c-0.788,0.393-1.572,0.784-2.163,1.179c-0.786,0.59-1.375,0.982-1.967,1.572
					c-0.593,0.589-1.183,1.181-1.574,1.771c-0.394,0.591-0.788,1.377-1.18,2.165c-0.395,0.785-0.59,1.571-0.786,2.357
					c-0.199,0.984-0.199,1.772-0.199,2.558s0,1.768,0.199,2.556C363.047,186.105,363.439,186.892,363.637,187.68z"/>
				<path fill="none" stroke="#5BCFF0" stroke-width="3.5466" stroke-miterlimit="10" d="M390.975,259.659h-4.521v-48.182
					c0-2.753-2.167-5.115-5.112-5.115h-20.653c-2.755,0-5.113,2.165-5.113,5.115v10.621c0,2.754,2.161,5.112,5.113,5.112h4.129
					v32.646h-4.129c-2.755,0-5.113,2.165-5.113,5.114v10.621c0,2.753,2.161,5.114,5.113,5.114h30.287
					c2.753,0,5.115-2.165,5.115-5.114V264.97C396.09,262.021,393.728,259.659,390.975,259.659z"/>
				<path fill="none" stroke="#5BCFF0" stroke-width="3.5466" stroke-miterlimit="10" d="M375.832,117.467
					c-59.396,0-107.582,48.186-107.582,107.579c0,59.394,48.186,107.579,107.582,107.579c59.393,0,107.578-48.185,107.578-107.579
					C483.41,165.652,435.225,117.467,375.832,117.467z"/>
			</g>
		</g>
	</g>
</g>
</svg>
